<?xml version="1.0" encoding="utf-8"?>
<!-- Svg Vector Icons : http://www.sfont.cn -->
<!DOCTYPE svg PUBLIC "-//W3C//DTD SVG 1.1//EN" "http://www.w3.org/Graphics/SVG/1.1/DTD/svg11.dtd">
<svg fill="#fff" version="1.1" xmlns="http://www.w3.org/2000/svg" xmlns:xlink="http://www.w3.org/1999/xlink" x="0px" y="0px" viewBox="0 0 1000 1000" enable-background="new 0 0 1000 1000" xml:space="preserve">
<metadata> Svg Vector Icons : http://www.sfont.cn </metadata>
<g><path d="M990,162.3c0-17-13.7-30.7-30.6-30.7H193.7V70.2h30.6c16.9,0,30.6-13.7,30.6-30.7c0-17-13.7-30.7-30.6-30.7H40.6C23.7,8.8,10,22.5,10,39.5c0,17,13.7,30.7,30.6,30.7h91.9v552.6c0,67.8,54.8,122.8,122.5,122.8h61.3h367.5h275.6c1,0,0-30.4,0-61.4H255c-33.8,0-61.3-27.5-61.3-61.4l704.4-61.4C898.1,561.4,990,189.1,990,162.3z M193.7,193v368.4L850.4,507l78.3-314H193.7z M806.2,868.4c0,67.8-54.8,122.8-122.5,122.8c-67.7,0-122.5-55-122.5-122.8c0-67.8,54.8-122.8,122.5-122.8C751.4,745.6,806.2,800.6,806.2,868.4z M683.7,807c-33.8,0-61.2,27.5-61.2,61.4c0,33.9,27.4,61.4,61.2,61.4c33.8,0,61.3-27.5,61.3-61.4C745,834.5,717.6,807,683.7,807z M438.7,868.4c0,67.8-54.8,122.8-122.5,122.8c-67.7,0-122.5-55-122.5-122.8c0-67.8,54.8-122.8,122.5-122.8C383.9,745.6,438.7,800.6,438.7,868.4z M316.3,807c-33.8,0-61.3,27.5-61.3,61.4c0,33.9,27.4,61.4,61.3,61.4s61.3-27.5,61.3-61.4C377.5,834.5,350.1,807,316.3,807z"/></g>
</svg>