<?xml version="1.0" encoding="utf-8"?>
<!-- Svg Vector Icons : http://www.sfont.cn -->
<!DOCTYPE svg PUBLIC "-//W3C//DTD SVG 1.1//EN" "http://www.w3.org/Graphics/SVG/1.1/DTD/svg11.dtd">
<svg fill="#1a780d" version="1.1" xmlns="http://www.w3.org/2000/svg" xmlns:xlink="http://www.w3.org/1999/xlink" x="0px" y="0px" viewBox="0 0 1000 1000" enable-background="new 0 0 1000 1000" xml:space="preserve">
<metadata> Svg Vector Icons : http://www.sfont.cn </metadata>
<g><path d="M797.2,533.1H589.3c-6.6,0-12.9,1.3-18.7,3.7c-21.9,4.7-38.3,24.2-38.3,47.5V798c0,106.3,86.5,192.8,192.8,192.8h72.1C903.5,990.8,990,904.3,990,798v-72.1C990,619.6,903.5,533.1,797.2,533.1L797.2,533.1z M892.8,798c0,52.7-42.9,95.6-95.6,95.6h-72.1c-52.7,0-95.6-42.9-95.6-95.6V630.3h167.7c52.7,0,95.6,42.9,95.6,95.6V798L892.8,798z"/><path d="M429.4,536.8c-5.7-2.4-12-3.7-18.6-3.7H202.8C96.5,533.1,10,619.6,10,725.9V798c0,106.3,86.5,192.8,192.8,192.8h72.1c106.3,0,192.8-86.5,192.8-192.8V584.3C467.7,561,451.3,541.5,429.4,536.8L429.4,536.8z M370.5,798c0,52.7-42.9,95.6-95.6,95.6h-72.1c-52.7,0-95.6-42.9-95.6-95.6v-72.1c0-52.7,42.9-95.6,95.6-95.6h167.7V798L370.5,798z"/><path d="M202.8,466.9h207.9c6.6,0,12.9-1.3,18.7-3.7c21.9-4.7,38.3-24.2,38.3-47.5V202c0-106.3-86.5-192.8-192.8-192.8h-72.1C96.5,9.2,10,95.7,10,202v72.1C10,380.4,96.5,466.9,202.8,466.9z M107.2,202c0-52.7,42.9-95.6,95.6-95.6h72.1c52.7,0,95.6,42.9,95.6,95.6v167.7H202.8c-52.7,0-95.6-42.9-95.6-95.6L107.2,202L107.2,202z"/><path d="M797.2,9.2h-72.1C618.8,9.2,532.3,95.7,532.3,202v213.7c0,23.3,16.4,42.8,38.4,47.5c5.7,2.4,12,3.7,18.6,3.7h207.9c106.3,0,192.8-86.5,192.8-192.8V202C990,95.7,903.5,9.2,797.2,9.2z M892.8,274.1c0,52.7-42.9,95.6-95.6,95.6H629.5V202c0-52.7,42.9-95.6,95.6-95.6h72.1c52.7,0,95.6,42.9,95.6,95.6V274.1L892.8,274.1z"/></g>
</svg>