<?xml version="1.0" encoding="utf-8"?>
<!-- Svg Vector Icons : http://www.sfont.cn -->
<!DOCTYPE svg PUBLIC "-//W3C//DTD SVG 1.1//EN" "http://www.w3.org/Graphics/SVG/1.1/DTD/svg11.dtd">
<svg fill="#1a780d" version="1.1" xmlns="http://www.w3.org/2000/svg" xmlns:xlink="http://www.w3.org/1999/xlink" x="0px" y="0px" viewBox="0 0 1000 1000" enable-background="new 0 0 1000 1000" xml:space="preserve">
<metadata> Svg Vector Icons : http://www.sfont.cn </metadata>
<g><path d="M500,990C229.4,990,10,770.6,10,500S229.4,10,500,10s490,219.4,490,490S770.6,990,500,990z M785.9,349.6c-17.9-17.8-46.9-17.8-64.8,0L462.1,607.4L332.6,478.5c-17.9-17.8-46.9-17.8-64.8,0c-17.9,17.8-17.9,46.6,0,64.4l161.9,161c17.9,17.8,46.9,17.8,64.8,0L785.9,414C803.8,396.3,803.8,367.4,785.9,349.6z"/></g>
</svg>