<?xml version="1.0" encoding="utf-8"?>
<!-- Svg Vector Icons : http://www.sfont.cn -->
<!DOCTYPE svg PUBLIC "-//W3C//DTD SVG 1.1//EN" "http://www.w3.org/Graphics/SVG/1.1/DTD/svg11.dtd">
<svg fill="rgb(204, 51, 51)" version="1.1" xmlns="http://www.w3.org/2000/svg" xmlns:xlink="http://www.w3.org/1999/xlink" x="0px" y="0px" viewBox="0 0 1000 1000" enable-background="new 0 0 1000 1000" xml:space="preserve">
<metadata> Svg Vector Icons : http://www.sfont.cn </metadata>
<g><path d="M951.5,309.2c-25.7-59.2-60.7-111.2-105.1-155.7C802,108.9,750.3,74,691.1,48.4C631.9,22.8,568.3,10,500.5,10S369.1,22.8,309.4,48.4C249.8,74,198,108.9,153.6,153.4C109.2,198,74.2,249.9,48.5,309.2C22.8,368.5,10,431.9,10,499.4c0,67.5,12.8,131.1,38.5,190.7c25.7,59.8,60.7,111.9,105.1,156.4C198,891,249.8,926,309.4,951.6c59.6,25.6,123.3,38.4,191.1,38.4c67.8,0,131.4-12.8,190.6-38.4C750.3,926,802,891,846.4,846.5c44.4-44.5,79.4-96.6,105.1-156.4C977.2,630.5,990,567,990,499.4C990,431.9,977.2,368.5,951.5,309.2 M753.3,657c26.6,26.6,26.6,69.7,0,96.2c-13.3,13.3-30.7,19.9-48.1,19.9c-17.4,0-34.8-6.6-48.1-19.9l-157-157l-157,157c-13.3,13.3-30.7,19.9-48.1,19.9c-17.4,0-34.8-6.6-48.1-19.9c-26.6-26.6-26.6-69.7,0-96.2l157-157l-157-157c-26.6-26.6-26.6-69.6,0-96.2c26.6-26.6,69.7-26.6,96.2,0l157,157l157-157c26.6-26.6,69.7-26.6,96.2,0c26.6,26.6,26.6,69.7,0,96.2l-157,157L753.3,657z"/></g>
</svg>