<?xml version="1.0" encoding="utf-8"?>
<!-- Svg Vector Icons : http://www.sfont.cn -->
<!DOCTYPE svg PUBLIC "-//W3C//DTD SVG 1.1//EN" "http://www.w3.org/Graphics/SVG/1.1/DTD/svg11.dtd">
<svg fill="#fff" version="1.1" xmlns="http://www.w3.org/2000/svg" xmlns:xlink="http://www.w3.org/1999/xlink" x="0px" y="0px" viewBox="0 0 1000 1000" enable-background="new 0 0 1000 1000" xml:space="preserve">
<metadata> Svg Vector Icons : http://www.sfont.cn </metadata>
<g><path d="M598.1,990H401.8c-184.8,0-330.8,0-330.8-93.9v-19.3c0-179.6,148.4-325.7,330.8-325.7h196.3c182.4,0,330.8,146.1,330.8,325.7v19.3C928.9,990,775.6,990,598.1,990L598.1,990z"/><path d="M490.2,526.2c-144.4,0-262-115.8-262-258.1c0-142.3,117.5-258.1,262-258.1c144.4,0,262,115.8,262,258.1C752.1,410.5,634.6,526.2,490.2,526.2L490.2,526.2z"/></g>
</svg>