<?xml version="1.0" encoding="utf-8"?>
<!-- Svg Vector Icons : http://www.sfont.cn -->
<!DOCTYPE svg PUBLIC "-//W3C//DTD SVG 1.1//EN" "http://www.w3.org/Graphics/SVG/1.1/DTD/svg11.dtd">
<svg version="1.1" xmlns="http://www.w3.org/2000/svg" xmlns:xlink="http://www.w3.org/1999/xlink" x="0px" y="0px" viewBox="0 0 1000 1000" enable-background="new 0 0 1000 1000" xml:space="preserve">
<metadata> Svg Vector Icons : http://www.sfont.cn </metadata>
<g><path d="M755.4,523.9c0.1-0.2,0.2-0.3,0.3-0.5c6.2-7.8,8.9-17.6,8-27c0,0,0,0,0,0c-0.5-4.8-1.8-9.5-4.1-13.9c-0.1-0.2-0.2-0.3-0.3-0.5c-0.5-0.9-1-1.8-1.6-2.7c-0.3-0.5-0.7-0.9-1-1.3c-0.4-0.6-0.8-1.2-1.3-1.7c-0.1-0.1-0.3-0.3-0.4-0.4c-0.7-0.8-1.4-1.7-2.2-2.4L300.6,21.1c-14.8-14.8-38.7-14.8-53.5,0c-14.8,14.8-14.8,38.7,0,53.5L672.6,500L247.2,925.5c-14.8,14.8-14.8,38.7,0,53.5c7.4,7.4,17.1,11.1,26.7,11.1s19.3-3.7,26.7-11.1l452.2-452.2c0.4-0.4,0.7-0.8,1-1.2C754.4,525,754.9,524.5,755.4,523.9z"/></g>
</svg>