<?xml version="1.0" encoding="utf-8"?>
<!-- Svg Vector Icons : http://www.sfont.cn -->
<!DOCTYPE svg PUBLIC "-//W3C//DTD SVG 1.1//EN" "http://www.w3.org/Graphics/SVG/1.1/DTD/svg11.dtd">
<svg fill="#1a780d" version="1.1" xmlns="http://www.w3.org/2000/svg" xmlns:xlink="http://www.w3.org/1999/xlink" x="0px" y="0px" viewBox="0 0 1000 1000" enable-background="new 0 0 1000 1000" xml:space="preserve">
<metadata> Svg Vector Icons : http://www.sfont.cn </metadata>
<g><path d="M500,10C229.4,10,10,229.4,10,500c0,270.6,219.4,490,490,490c270.6,0,490-219.4,490-490C990,229.4,770.6,10,500,10L500,10z M799.4,359.2l-335.9,329c-1.7,2.8-3.7,5.7-6.5,8.4l-15.8,15.7c-8.7,8.7-18.9,12.6-22.9,8.6l-160-167.4c-3.9-3.9-0.1-14.2,8.6-22.9l15.8-15.7c8.7-8.7,18.9-12.6,22.9-8.6l119.9,125.5L752.1,312c8.7-8.7,22.8-8.7,31.5,0l15.8,15.8C808.1,336.4,808.1,350.5,799.4,359.2L799.4,359.2z"/></g>
</svg>